<?xml version="1.0" encoding="UTF-8" standalone="no"?>
<!-- Created with Inkscape (http://www.inkscape.org/) -->

<svg
   version="1.1"
   id="svg2708"
   width="346.66132"
   height="552.6554"
   viewBox="0 0 346.66132 552.6554"
   sodipodi:docname="far3.svg"
   inkscape:version="1.2.2 (732a01da63, 2022-12-09, custom)"
   xmlns:inkscape="http://www.inkscape.org/namespaces/inkscape"
   xmlns:sodipodi="http://sodipodi.sourceforge.net/DTD/sodipodi-0.dtd"
   xmlns="http://www.w3.org/2000/svg"
   xmlns:svg="http://www.w3.org/2000/svg">
  <defs
     id="defs2712" />
  <sodipodi:namedview
     id="namedview2710"
     pagecolor="#ffffff"
     bordercolor="#000000"
     borderopacity="0.25"
     inkscape:showpageshadow="2"
     inkscape:pageopacity="0.0"
     inkscape:pagecheckerboard="0"
     inkscape:deskcolor="#d1d1d1"
     showgrid="false"
     inkscape:zoom="1.0889444"
     inkscape:cx="188.2557"
     inkscape:cy="255.2931"
     inkscape:window-width="1920"
     inkscape:window-height="1031"
     inkscape:window-x="0"
     inkscape:window-y="25"
     inkscape:window-maximized="1"
     inkscape:current-layer="layer2" />
  <g
     inkscape:groupmode="layer"
     id="layer2"
     inkscape:label="Layer 1">
    <path
       style="fill:#000000;stroke-width:1.33333"
       d="m 426.66667,581.29621 c -6.47311,-1.75857 -22.49647,-10.60244 -24.568,-13.55996 C 400.52019,565.48265 400,561.34711 400,551.05153 c 0,-14.7493 -3.63707,-31.79257 -7.95933,-37.29741 -1.25779,-1.60189 -5.16739,-9.36585 -8.68802,-17.25323 -3.52062,-7.88737 -8.8738,-17.37672 -11.89592,-21.08745 -10.26316,-12.60163 -15.38978,-23.26856 -15.73028,-32.72987 -0.15713,-4.36616 -6.94762,-20.532 -10.34301,-24.6232 -0.82929,-0.99924 -4.64823,-9.8216 -8.48653,-19.60525 -7.28751,-18.57553 -15.38042,-32.13064 -17.25108,-28.89448 -0.5636,0.97499 -3.88815,6.57269 -7.3879,12.43936 -8.68097,14.55203 -16.17168,32.48157 -19.04552,45.58681 -1.31708,6.00608 -3.39916,12.8626 -4.62685,15.2367 -2.02013,3.9065 -2.03376,4.46161 -0.14344,5.84384 1.73168,1.26624 1.89403,2.90469 0.94979,9.58493 -1.21014,8.56135 -2.9448,12.65479 -9.4428,22.28299 -2.22952,3.30352 -5.82358,11.11442 -7.98678,17.35756 -2.16321,6.24313 -7.18102,19.02125 -11.1507,28.39582 -6.02862,14.23683 -7.36503,18.86852 -8.11248,28.11606 -1.941,24.01426 -2.97434,24.55809 -48.03248,25.27838 -28.11432,0.44944 -34.10191,0.20599 -38.24216,-1.5549 -6.31834,-2.68727 -6.80219,-3.62807 -4.37168,-8.50015 2.5443,-5.10016 6.9503,-7.99719 13.83774,-9.09853 3.85006,-0.61564 7.58694,-2.7689 12.95006,-7.46204 4.14612,-3.62818 10.79056,-8.9992 14.76542,-11.9356 6.57278,-4.8556 7.14955,-5.69166 6.37122,-9.23539 C 209.47309,529.60103 209.67371,528 210.46549,528 c 2.75839,0 5.3235,-4.16144 7.98254,-12.95027 3.63136,-12.00264 9.17056,-42.82305 10.47864,-58.3037 0.36809,-4.35635 1.68774,-11.25635 2.93254,-15.33334 2.03382,-6.6612 2.64143,-7.41828 5.99336,-7.46785 2.26754,-0.0336 4.31279,-1.07913 5.21622,-2.66667 0.92937,-1.63313 1.55364,-12.10234 1.66633,-27.94484 0.15349,-21.57885 0.71603,-28.09978 3.79567,-44 1.9885,-10.26666 3.90568,-19.66212 4.26038,-20.8788 0.45226,-1.55126 -1.7778,-3.91157 -7.4647,-7.9007 -11.95558,-8.38636 -18.7558,-18.67964 -20.62572,-31.2205 -0.65527,-4.39456 0.96756,-16.65352 3.43992,-25.98541 0.60106,-2.26875 -3.48594,-2.20471 -13.5005,0.21156 -4.10837,0.99124 -7.97578,1.03829 -12.15097,0.14781 -4.74104,-1.01117 -6.95113,-0.87312 -9.78395,0.61115 -2.0127,1.05456 -4.81766,1.61451 -6.23324,1.24432 -1.84442,-0.48232 -4.32858,1.20297 -8.76617,5.94712 -3.40583,3.64109 -9.11505,8.7656 -12.6872,11.38779 -5.52928,4.05886 -7.25872,4.66516 -11.63347,4.07838 -2.82625,-0.37908 -5.64918,-0.1787 -6.27317,0.44528 -2.0532,2.0532 -21.88746,2.57091 -26.33504,0.68739 -8.21738,-3.48 -12.10694,-12.55149 -5.05564,-11.79111 2.452,0.26442 2.94535,-0.34976 2.94535,-3.66666 0,-3.05502 0.6036,-3.98428 2.58797,-3.98428 1.42339,0 2.93098,-0.55499 3.35021,-1.23331 0.41922,-0.67832 4.50464,-1.09049 9.07868,-0.91592 6.23948,0.23812 8.72212,-0.20311 9.94074,-1.76669 2.6961,-3.45936 1.96028,-3.85872 -3.58779,-1.94726 -6.83431,2.35462 -12.42808,0.5981 -11.7956,-3.70396 0.29163,-1.98365 3.50731,-4.71366 10.20592,-8.66452 8.15135,-4.80768 10.93415,-5.76834 16.70943,-5.76834 10.86045,0 35.21554,-7.9385 42.08604,-13.71787 4.06877,-3.4226 11.77964,-6.93167 19.5359,-8.89043 3.37186,-0.85152 7.06451,-3.15492 9.699,-6.05004 2.47531,-2.72016 5.51883,-4.675 7.27863,-4.675 2.46497,0 3.32607,-1.12769 4.65493,-6.09617 1.98502,-7.42176 12.55954,-30.76903 18.07338,-39.90383 7.07757,-11.72545 15.18785,-21.47804 23.3671,-28.09889 l 7.96112,-6.44428 -3.77892,-2.29811 c -4.39441,-2.6724 -6.27062,-8.93685 -4.26693,-14.24678 0.74272,-1.96823 1.70619,-6.1286 2.14104,-9.24527 l 0.79067,-5.66667 h -4.44043 c -11.57552,0 -23.59109,-6.78218 -23.59109,-13.315963 0,-3.617811 5.49358,-10.83115 12.01521,-15.776543 7.32591,-5.555279 8.37763,-7.446301 11.97292,-21.527692 4.35215,-17.04568 6.82479,-20.983864 15.7366,-25.063828 8.03085,-3.676644 28.27527,-6.046139 28.27527,-3.30946 0,0.742027 1.06796,1.628416 2.37322,1.969753 1.31746,0.34452 5.1972,5.900467 8.72104,12.488842 8.3669,15.643224 11.0227,18.464922 19.77367,21.008901 18.63121,5.41624 16.6994,16.18102 -5.09059,28.366677 -7.26656,4.06369 -8.41324,5.197864 -7.71692,7.632783 0.4498,1.57293 1.12807,3.96472 1.50724,5.31509 0.50283,1.79076 1.46654,2.22931 3.56087,1.62046 1.57931,-0.45912 5.32039,-1.11024 8.31351,-1.44693 4.50226,-0.50646 5.96934,-0.0509 8.49561,2.63822 2.90604,3.09334 3.19428,5.96053 1.26137,12.54706 -0.3473,1.18347 2.51919,3.06959 8.2464,5.42604 10.8953,4.48285 18.39006,10.41759 26.2169,20.75993 8.6933,11.48726 11.47445,18.35845 11.8728,29.33333 0.18633,5.13333 1.2629,15.03333 2.3924,22 2.81153,17.34143 2.76448,42.80539 -0.0903,48.82123 -3.14111,6.61938 -13.99113,15.7835 -25.31097,21.37806 -5.4228,2.6801 -9.85966,5.3996 -9.85966,6.04332 0,0.64374 2.63838,9.7025 5.86307,20.13058 6.12251,19.79917 10.13693,39.72549 10.13693,50.31653 0,3.42088 0.89351,9.16516 1.98558,12.76504 1.09205,3.59988 2.00681,8.64524 2.03277,11.21191 0.026,2.56666 1.31703,8.26666 2.869,12.66666 2.18783,6.20271 2.78255,10.84572 2.6472,20.66667 -0.20172,14.63607 1.25933,20.35575 5.71872,22.38759 3.34651,1.52476 6.30223,9.45844 9.04524,24.27908 1.40823,7.6087 5.1816,25.51741 10.99024,52.16054 1.85785,8.52163 3.37792,16.19664 3.37792,17.0556 0,3.2805 7.91743,18.26711 11.33232,21.45052 1.96663,1.83334 6.2214,7.11208 9.45503,11.73055 11.68078,16.68323 5.98018,26.79497 -16.12068,28.59496 -3.66667,0.29863 -8.16667,0.13545 -10,-0.36263 z"
       id="path3189"
       transform="translate(-112.0511,-29.152884)" />
    <path
       id="path3218"
       style="fill:#008000;stroke-width:1.33333"
       d="M 402.70149 428.00835 C 393.35663 428.07952 376.07752 432.57773 363.66633 438.85796 C 359.63348 440.89866 358.66633 442.12924 358.66633 445.2232 C 358.66633 450.67339 367.33774 466.82807 374.90462 475.47515 C 378.44026 479.51554 381.3343 483.60687 381.3343 484.56695 C 381.3343 488.49442 396.51713 516.19722 400.48469 519.50835 C 402.78487 521.42795 405.20502 523.97232 405.8636 525.1646 C 406.52217 526.35688 405.47448 525.88113 403.53548 524.10601 C 401.59646 522.33089 399.66098 521.22855 399.23274 521.65679 C 398.80452 522.08503 399.45634 526.23844 400.68196 530.88531 C 401.90757 535.53218 403.03715 544.28261 403.19368 550.33257 C 403.5047 562.35388 406.21659 568.2622 411.8011 569.09234 C 414.68461 569.52098 415.66113 567.15388 413.66633 564.57281 C 413.11633 563.86117 415.06699 565.83183 418.00032 568.95171 C 423.15586 574.43515 429.62706 578.64177 432.93391 578.65874 C 433.81449 578.66274 437.58278 578.01408 441.30696 577.21538 C 450.51745 575.2401 456.49729 570.1553 455.49641 565.15093 C 453.27665 554.0521 438.93621 538.66656 430.81087 538.66656 C 429.35106 538.66656 427.73707 537.98669 427.22298 537.15484 C 426.57544 536.10712 427.57476 535.83046 430.47688 536.2564 C 435.30642 536.96523 435.79557 535.38165 432.63313 529.26617 C 430.42267 524.99161 429.21934 524.58654 425.17219 526.75249 C 423.71309 527.53339 421.80211 527.93133 420.9261 527.63531 C 420.05009 527.3393 421.24132 526.10714 423.57258 524.89702 C 429.82694 521.65051 429.84325 520.44728 424.0218 493.33257 C 422.52607 486.36592 420.39449 476.18057 419.28352 470.69781 C 418.17256 465.21503 416.69588 460.16095 416.00227 459.46734 C 415.20964 458.67471 413.01324 459.13729 410.09016 460.71148 C 407.53219 462.08904 405.10849 462.88606 404.7054 462.48296 C 404.3023 462.07987 406.36498 460.67082 409.28938 459.3521 C 412.21377 458.03339 414.92331 455.96157 415.30891 454.74663 C 416.15073 452.09429 411.10321 432.13119 408.92805 429.51031 C 408.05017 428.45252 405.81644 427.98463 402.70149 428.00835 z M 239.19563 436.76812 C 238.06582 436.72143 237.31251 436.82116 237.03938 437.09429 C 235.36106 438.77261 232.03467 451.88924 232.01594 456.90288 C 232.00164 460.73258 232.72365 461.49122 239.54915 464.83062 C 243.70072 466.8618 246.40746 468.75284 245.56477 469.03374 C 244.72206 469.31464 242.13242 468.59814 239.81087 467.43999 C 234.00303 464.54267 232.19356 464.78591 230.40852 468.70367 C 229.24433 471.25875 229.25009 472.44945 230.43587 473.63531 C 232.69362 475.89306 232.35636 478.66656 229.82454 478.66656 C 226.8527 478.66656 228.1498 486.59371 232.00813 492.01226 C 233.56971 494.2053 234.28007 496.00054 233.58626 496.00054 C 232.89243 496.00054 231.4182 494.65054 230.30891 493.00054 C 227.64264 489.03458 226.87633 490.05225 225.14876 499.85992 C 224.35073 504.39035 221.64384 513.92399 219.13313 521.04742 C 216.62244 528.17083 214.22038 535.04924 213.79524 536.33257 C 213.1879 538.16601 213.78758 538.66656 216.59016 538.66656 C 218.62899 538.66656 219.80328 539.23854 219.33235 540.00054 C 218.87912 540.73387 216.59427 541.33568 214.25423 541.33843 C 209.12927 541.34543 203.9909 544.34442 192.70735 553.91656 C 182.96614 562.18027 181.0756 563.29359 174.73665 564.49859 C 168.51984 565.68041 164.00032 568.83928 164.00032 572.00445 C 164.00032 574.49454 164.76056 574.88276 172.66633 576.41265 C 174.13299 576.69648 182.64708 576.99741 191.58626 577.08257 C 207.81777 577.2372 207.84717 577.23148 214.25227 572.91265 C 219.97964 569.0508 227.08085 565.33257 228.72883 565.33257 C 230.98111 565.33257 228.51795 567.89559 224.35774 569.87945 C 219.55722 572.16866 219.47657 572.32039 222.02571 574.23492 C 224.82425 576.33675 236.66905 575.82982 241.18196 573.4146 C 243.67233 572.08178 250.66633 555.32104 250.66633 550.68609 C 250.66633 548.57854 250.07849 547.94064 248.64485 548.49077 C 247.26795 549.01913 247.89724 546.97992 250.61555 542.09429 C 256.83212 530.92126 260.05499 521.92241 258.4261 520.29351 C 256.6147 518.48211 258.1824 516.00054 261.13704 516.00054 C 262.66375 516.00054 263.9398 514.3015 264.8929 511.00054 C 265.68691 508.25054 267.84416 501.98497 269.68782 497.07671 C 271.53149 492.16846 272.75239 487.86393 272.40071 487.51226 C 272.04905 487.16058 269.62137 487.22062 267.00618 487.64507 C 263.59677 488.19834 262.52232 487.9808 263.2054 486.87554 C 263.72936 486.0277 266.1797 485.33257 268.65071 485.33257 C 272.90743 485.33257 277.3343 482.57652 277.3343 479.92632 C 277.3343 479.25772 274.2731 477.16116 270.53352 475.26617 C 262.11097 470.99814 262.63543 469.62245 271.23469 473.42632 C 277.19771 476.06404 277.68652 476.09283 280.05891 473.94585 C 283.57911 470.76012 286.9496 461.26402 286.43391 455.98296 C 286.11035 452.66945 284.98517 450.97859 282.00032 449.32085 C 273.42075 444.55587 247.10431 437.0949 239.19563 436.76812 z "
       transform="translate(-112.0511,-29.152884)" />
    <path
       id="path3230"
       style="fill:#0000ff;stroke-width:1.33333"
       d="M 373.06868 278.9771 C 372.35331 279.21555 370.71125 282.41079 369.42024 286.07671 C 368.12924 289.74266 365.48276 295.26269 363.53743 298.34429 C 361.5921 301.42589 360.00032 304.28525 360.00032 304.69781 C 360.00032 306.71158 348.84294 320.16181 341.77571 326.66851 C 333.4871 334.2997 317.47094 344.00054 313.15852 344.00054 C 311.7885 344.00054 310.66633 344.62472 310.66633 345.38726 C 310.66633 348.17892 315.98981 357.07933 324.43196 368.40288 C 330.56011 376.62264 334.29274 383.34714 337.22883 391.46148 C 344.59963 411.83163 347.63164 417.09471 354.46907 421.38921 C 360.32636 425.0681 361.38656 426.88344 355.99251 423.99663 C 352.21452 421.97472 351.92499 424.05419 354.99446 431.14507 C 358.22294 438.60332 357.55001 438.59243 375.03743 431.41851 C 381.48122 428.77504 390.36592 426.24011 394.80696 425.77593 C 402.26725 424.99617 402.8014 424.7224 401.91243 422.13335 C 401.38379 420.59373 400.80727 412.43386 400.63313 404.00054 C 400.22605 384.28769 396.81288 375.11126 394.05696 386.32085 C 392.98823 390.66789 383.08457 412.00054 382.13508 412.00054 C 381.77473 412.00054 383.02016 408.54924 384.90266 404.33257 C 391.03553 390.59546 394.66762 378.33329 394.6468 371.43218 C 394.6169 361.51467 392.89931 359.74004 389.52571 366.13726 C 388.01835 368.99559 386.77699 370.43257 386.7679 369.33257 C 386.7589 368.23257 387.63263 366.16817 388.7093 364.74468 C 392.41914 359.83985 390.92826 337.12897 385.28938 312.62359 C 382.07497 298.65447 374.72743 278.42418 373.06868 278.9771 z M 257.44173 339.15484 C 256.78368 339.11651 256.29312 339.21845 256.04719 339.4771 C 254.88523 340.69918 250.75944 360.73994 247.92219 378.93999 C 246.38801 388.78127 246.94294 394.88319 250.12532 403.17632 C 250.73092 404.75449 250.40204 405.14806 248.94368 404.58843 C 247.24091 403.93502 246.95398 405.34845 247.12727 413.57281 C 247.24034 418.94098 246.87444 425.89853 246.31282 429.03374 C 245.56534 433.20644 245.74336 434.8565 246.97883 435.19195 C 247.90713 435.44399 253.31489 436.72905 258.99641 438.04742 C 264.67796 439.36577 271.57861 441.49679 274.3304 442.78179 C 281.98795 446.35765 283.25279 445.96398 286.48079 439.00054 C 288.09552 435.51721 289.95671 429.27435 290.61751 425.12749 C 291.27833 420.98064 292.45511 416.48063 293.23274 415.12749 C 295.49271 411.19492 300.00032 398.76348 300.00032 396.46343 C 300.00032 394.6016 299.65503 394.5811 297.00032 396.27984 C 293.64612 398.42617 289.3343 400.18619 289.3343 399.40874 C 289.3343 399.12946 293.083 396.21435 297.66633 392.93023 C 309.39888 384.5234 319.97034 366.76708 316.29915 361.63335 C 315.39476 360.36867 313.05824 356.2377 311.10774 352.45367 L 307.56282 345.57281 L 295.44758 346.2896 C 282.82836 347.03566 271.4706 345.07045 261.76204 340.46343 C 260.09968 339.67459 258.53846 339.21871 257.44173 339.15484 z "
       transform="translate(-112.0511,-29.152884)" />
    <path
       id="path3232"
       style="display:inline;fill:#008080;stroke-width:1.33333"
       d="M 357.41829 110.66656 C 355.29337 110.66656 353.20545 111.41591 352.77766 112.33257 C 352.15545 113.66591 351.84518 113.66591 351.22298 112.33257 C 350.1321 109.99498 346.66633 110.24914 346.66633 112.66656 C 346.66633 113.76655 347.73394 114.66656 349.03743 114.66656 C 352.6283 114.66656 357.3343 118.49063 357.3343 121.40874 C 357.3343 125.01896 359.76304 124.64573 361.53157 120.76421 C 362.34227 118.98495 362.61662 115.9856 362.1429 114.0982 C 361.46552 111.39925 360.45687 110.66656 357.41829 110.66656 z M 356.96712 144.20562 C 356.38011 144.18288 355.65347 147.21868 354.7679 153.37554 C 353.87462 159.58592 351.67655 171.51039 349.88313 179.87554 C 340.15548 225.24864 327.38849 249.79566 302.66633 270.6607 C 299.39822 273.41892 299.39343 273.45786 302.36555 272.63726 C 304.03285 272.17692 311.16201 268.29296 318.2093 264.0064 C 327.6758 258.24836 331.76137 254.89535 333.85188 251.16851 C 336.31206 246.78266 344.07141 239.66453 350.0218 236.33452 C 352.21557 235.10683 354.65906 208.30742 354.66438 185.40093 C 354.66738 174.61989 355.02511 171.82611 356.25423 173.05523 C 357.47461 174.27562 357.51046 181.21282 356.40266 202.98882 C 355.60958 218.57846 355.20419 231.59314 355.50227 231.9107 C 355.80033 232.22826 357.68316 231.26324 359.68782 229.76617 C 363.2815 227.08241 363.32712 226.85963 362.9593 213.85601 C 362.4588 196.16195 358.55295 147.99234 357.35188 144.70757 C 357.23111 144.37728 357.10258 144.21087 356.96712 144.20562 z M 252.12532 234.66656 C 250.28972 234.66656 238.24122 256.17869 233.66048 267.63531 C 229.89026 277.06466 228.85472 281.7016 228.31673 291.54937 C 227.73206 302.25083 228.01333 304.51944 230.58821 309.83843 C 236.18527 321.40044 255.76544 335.93003 273.0843 341.37359 C 281.78527 344.10841 289.91374 344.44793 303.72102 342.65484 C 328.06538 339.49332 350.53871 319.57765 364.61555 288.68804 L 369.34212 278.31695 L 364.36946 279.12359 C 357.84572 280.18225 353.8059 283.34658 349.74446 290.58452 C 338.98497 309.75914 314.45354 337.56508 311.18196 334.29351 C 310.85769 333.96924 315.46485 328.97122 321.42024 323.18609 C 330.82321 314.05195 348.00032 291.32618 348.00032 288.02007 C 348.00032 287.39391 345.86108 287.47196 343.24641 288.1939 C 340.63177 288.91584 336.71593 289.11598 334.54524 288.63921 C 328.83573 287.38519 316.76503 291.59238 307.10969 298.20171 C 297.77922 304.58867 287.80461 308.00054 278.4554 308.00054 C 273.18087 308.00054 271.69551 307.44011 269.96907 304.80523 C 268.81802 303.0485 266.70648 301.30583 265.27766 300.93218 C 263.84885 300.55854 262.33241 299.14647 261.90852 297.79351 C 261.48461 296.44055 260.58246 294.29151 259.90266 293.01812 C 259.22286 291.74474 258.66633 290.02799 258.66633 289.20367 C 258.66633 288.37934 256.50163 283.32477 253.85579 277.97124 C 247.64342 265.4014 246.61868 254.98177 250.41438 243.00054 C 251.86641 238.41721 252.63585 234.66656 252.12532 234.66656 z M 254.52766 324.10015 C 255.52785 324.12275 257.59972 324.80564 260.81477 326.14898 C 264.67562 327.76215 268.90176 328.15565 277.78352 327.73101 C 287.78466 327.25285 289.24154 327.43625 287.21712 328.91656 C 285.90034 329.87938 282.68828 330.71635 280.07844 330.77593 C 277.46862 330.83553 273.6844 331.00502 271.67024 331.15288 C 269.65608 331.30074 265.38444 330.65479 262.1761 329.71929 C 258.96776 328.78378 255.59145 327.11556 254.67415 326.01031 C 253.59937 324.71528 253.52747 324.07757 254.52766 324.10015 z "
       transform="translate(-112.0511,-29.152884)" />
    <path
       id="path3252"
       style="display:inline;fill:#008000;stroke-width:1.33333"
       d="M 351.88899 118.61577 C 351.75673 118.59125 351.64445 118.61926 351.56477 118.70562 C 351.24604 119.05105 349.0568 128.03323 346.69954 138.66656 C 335.40859 189.59859 317.80148 233.2221 297.66633 260.14898 C 293.81634 265.29759 290.66633 270.06947 290.66633 270.75445 C 290.66633 273.83701 296.17685 271.42465 304.07454 264.88335 C 324.60605 247.87804 339.51468 217.86803 347.90266 176.66656 C 354.25348 145.47152 356.27378 124.60534 353.38508 120.03765 C 352.87342 119.22858 352.28577 118.68936 351.88899 118.61577 z M 250.48079 254.00054 L 251.23079 260.45367 C 251.64379 264.00345 253.12189 269.48239 254.51399 272.62945 C 256.7352 277.65086 257.46969 278.2715 260.5218 277.68804 C 262.43463 277.32239 264.00032 276.72866 264.00032 276.36968 C 264.00032 276.0107 262.19876 273.44138 259.99641 270.6607 C 257.79407 267.88001 254.75221 262.99478 253.23665 259.80327 L 250.48079 254.00054 z "
       transform="translate(-112.0511,-29.152884)" />
    <path
       id="path3250"
       style="display:inline;fill:#aa4400;stroke-width:1.33333"
       d="M 346.66633 120.00054 C 345.933 120.00054 345.3343 120.87092 345.3343 121.93609 C 345.3343 125.56529 334.50926 144.43896 325.85383 155.90093 C 321.10544 162.189 311.99525 172.73644 305.60969 179.34038 C 299.22413 185.94431 292.80097 192.77306 291.3343 194.51617 L 288.66633 197.68609 L 294.66633 194.66265 C 297.96633 192.99999 306.667 187.5487 314.00032 182.54742 C 321.33364 177.54614 328.9971 171.88986 331.02962 169.97906 C 334.7407 166.49018 334.83357 164.00054 331.25423 164.00054 C 328.16364 164.00054 328.91861 162.14764 336.51204 151.10601 C 341.36077 144.05546 344.39135 137.9259 345.84602 132.22515 C 348.34534 122.43042 348.50825 120.00054 346.66633 120.00054 z M 359.61165 127.00249 C 359.35626 127.00411 359.17993 127.04164 359.09993 127.12163 C 358.01685 128.20469 358.19321 132.55819 359.91438 147.33257 C 360.68327 153.93256 361.31655 160.1843 361.32258 161.2232 C 361.34258 164.68663 362.68697 161.81803 364.74251 153.92632 C 365.86131 149.63098 368.5931 143.16393 370.81477 139.55327 C 373.03642 135.94262 374.36176 132.5444 373.76008 132.00249 C 371.94463 130.36735 362.08041 126.98687 359.61165 127.00249 z M 378.59993 135.34429 C 376.6333 135.45576 374.9843 137.42869 372.32063 141.34038 C 365.51897 151.32882 362.22538 171.20689 364.03743 191.33257 C 364.6977 198.6659 365.25931 208.71656 365.28548 213.66656 C 365.31157 218.61655 365.69681 222.66656 366.14094 222.66656 C 366.58509 222.66656 368.73168 221.16591 370.91048 219.33257 C 373.65023 217.02721 376.38256 216.03321 379.76985 216.10601 L 384.66633 216.20952 L 380.66633 217.50054 C 374.5878 219.46121 368.00032 222.95054 368.00032 224.20952 C 368.00032 224.82737 370.73517 225.33257 374.07844 225.33257 C 377.79138 225.33257 379.83764 225.85215 379.3343 226.66656 C 378.88108 227.3999 376.05639 228.00054 373.05891 228.00054 C 367.6268 228.00054 363.78433 230.00472 346.66633 241.77007 C 339.95222 246.38475 338.30113 248.1946 335.43977 254.07085 C 334.34966 256.30955 332.24077 259.24118 330.75423 260.58648 C 324.97837 265.81357 326.18135 278.65982 332.94368 283.97906 C 337.0232 287.18803 341.39044 287.39402 346.73274 284.6314 L 346.73274 284.63335 C 351.86641 281.97864 351.73663 280.78686 346.43001 281.8482 C 344.10014 282.31417 342.63729 282.25224 343.17805 281.71148 C 343.7188 281.17072 350.77822 279.10031 358.86555 277.11187 C 385.78089 270.49415 407.1922 257.07829 410.67219 244.64898 C 414.40141 231.32946 410.1898 190.94686 403.74251 178.20367 C 400.76113 172.31091 401.43224 169.82573 404.4593 175.54937 C 406.24552 178.92678 406.56463 179.0671 407.42805 176.85601 C 410.09996 170.01367 400.19306 152.57465 386.78548 140.52007 C 382.85073 136.98239 380.56655 135.23282 378.59993 135.34429 z M 289.76985 142.70952 C 289.21243 142.65124 286.89399 144.48382 284.3929 146.98492 C 280.14376 151.23404 279.40924 152.95314 278.45735 160.85992 C 277.47237 169.04158 278.77582 188.65858 280.85579 196.94585 C 282.39718 203.08719 284.24482 199.97216 283.59212 192.33257 C 282.69008 181.77452 285.05399 159.51523 288.01594 150.67827 C 289.36552 146.65181 290.19461 143.08349 289.85774 142.74663 C 289.83669 142.72558 289.80701 142.71341 289.76985 142.70952 z M 339.97493 150.59234 C 339.84243 150.60248 339.73211 150.66331 339.66243 150.77788 C 339.47662 151.08344 337.92769 153.3247 336.22102 155.75835 C 333.03054 160.30785 333.14124 164.00054 336.46712 164.00054 C 337.59411 164.00054 338.97426 161.52547 339.90266 157.83843 C 340.75607 154.44923 341.12656 151.34945 340.72688 150.94976 C 340.47707 150.69996 340.19577 150.57543 339.97493 150.59234 z M 274.67024 160.00054 C 271.98852 160.00054 267.00608 180.17984 265.33235 197.82476 C 264.5642 205.92281 263.06785 213.1007 261.43977 216.49077 C 259.98479 219.52041 258.16511 224.54989 257.3968 227.66656 C 256.62848 230.78321 255.34715 235.88387 254.54915 239.00054 C 252.69767 246.23177 253.77485 257.34106 256.79915 262.21538 C 260.00954 267.38965 266.99386 274.78435 267.85579 273.92242 C 268.24292 273.5353 268.70616 269.49383 268.88508 264.94195 C 269.06401 260.39005 270.11824 254.096 271.22883 250.95367 C 272.342 247.80405 272.89728 243.48925 272.46712 241.33843 C 271.67547 237.38018 274.51613 223.01556 278.28938 211.89702 C 280.17558 206.33903 280.16309 204.71627 278.1468 193.74468 C 276.92898 187.11804 275.90064 176.81459 275.86165 170.8482 C 275.82267 164.88179 275.28725 160.00054 274.67024 160.00054 z M 269.3636 162.66656 C 266.22093 162.66656 249.00626 194.10962 242.14876 212.37554 L 238.75423 221.41851 L 243.37727 223.62359 C 249.79255 226.68281 249.17954 228.29725 242.49837 225.93999 C 234.34189 223.06223 231.26229 223.48681 227.75423 227.96929 C 225.5571 230.7767 221.73556 232.92842 214.70149 235.32085 C 209.23145 237.18133 202.47046 240.28807 199.67805 242.2232 C 194.65651 245.70312 194.63133 245.76864 197.23665 248.19585 C 200.90546 251.61389 202.74831 259.06568 201.23274 264.35015 C 200.55463 266.71456 200.00032 268.82194 200.00032 269.03374 C 200.00032 269.24555 201.35032 269.98625 203.00032 270.68023 C 206.25608 272.04959 209.6515 271.8195 222.14485 269.37554 C 230.20438 267.79894 230.32236 267.70976 233.38899 260.92437 C 236.81164 253.35118 247.6874 235.1628 252.95344 228.20562 C 257.9903 221.55123 262.30077 208.31033 263.27571 196.49273 C 264.28111 184.30582 266.10479 174.72152 268.76204 167.66656 C 269.80963 164.88518 270.0765 162.66656 269.3636 162.66656 z M 335.31282 169.35992 C 334.29362 169.47881 332.11635 171.11233 328.62337 174.35015 C 325.66651 177.091 319.06714 181.9818 313.95735 185.21929 C 308.84754 188.45678 303.17723 192.05678 301.35579 193.21929 C 299.53436 194.3818 295.03435 196.86801 291.35579 198.74468 C 287.28886 200.81947 283.93492 203.66587 282.8011 206.0064 C 279.10495 213.63632 274.66633 232.77448 274.66633 241.07867 C 274.66633 245.71537 274.09291 250.58148 273.39094 251.89312 C 272.68898 253.20475 271.69573 258.36627 271.18391 263.36187 C 270.30245 271.96539 270.38716 272.3847 272.79329 271.3189 C 274.19041 270.70003 278.03431 269.94131 281.3343 269.63335 C 286.67898 269.13457 287.91551 268.33798 292.66633 262.34038 C 295.59966 258.63725 298.60097 254.92367 299.3343 254.08648 C 300.79817 252.41532 301.81243 250.74089 310.29915 236.00054 C 317.82288 222.93278 336.00032 176.34314 336.00032 170.12749 C 336.00032 169.56452 335.77609 169.30587 335.31282 169.35992 z M 191.42415 248.21734 C 190.36816 248.1581 189.05442 248.54569 186.87727 249.26421 C 178.3947 252.06372 178.06478 252.54638 181.85969 256.64117 C 185.27415 260.32541 187.64319 268.00625 186.12337 270.46538 C 183.93592 274.00475 194.31222 272.30696 197.36751 268.62554 C 198.20452 267.617 198.88899 263.97775 198.88899 260.53765 C 198.88899 255.62209 198.16603 253.55884 195.51204 250.90484 C 193.71404 249.10685 192.78184 248.2935 191.42415 248.21734 z M 324.36751 264.00054 C 322.93518 264.00054 311.36001 271.06325 310.35383 272.55132 C 308.39276 275.45167 309.34434 283.65444 312.03938 287.08062 C 314.94239 290.7712 314.40325 290.80658 327.61751 286.03765 C 328.79672 285.61207 328.48799 283.75838 326.47493 279.20757 C 324.64331 275.06687 323.95568 271.45198 324.43782 268.48101 C 324.83778 266.01629 324.80703 264.00054 324.36751 264.00054 z "
       transform="translate(-112.0511,-29.152884)" />
    <path
       style="fill:#ac9d93;stroke-width:1.33333"
       d="m 302.17487,179.60147 c 17.3732,-17.7531 27.81005,-31.45424 36.66349,-48.1306 6.86911,-12.93866 7.55829,-15.5952 4.66813,-17.99382 -1.43724,-1.19282 -2.53953,-0.58785 -5.16877,2.83674 -4.80261,6.25541 -11.08244,12.59438 -21.1628,21.36213 -11.34568,9.86831 -14.91473,15.15173 -20.58925,30.47919 -3.63383,9.81536 -4.44878,11.2352 -3.7817,6.58869 0.46768,-3.25757 2.57606,-10.15757 4.68527,-15.33333 3.43095,-8.41911 5.34244,-22.07714 3.08977,-22.07714 -5.21268,0 -10.26536,10.45672 -13.20893,27.33642 -2.16197,12.39769 -2.74128,29.99692 -0.98739,29.99692 0.57715,0 7.68363,-6.77934 15.79218,-15.0652 z"
       id="path3270"
       transform="translate(-112.0511,-29.152884)" />
    <path
       id="path3244"
       style="fill:#ffeeaa;stroke-width:1.33333"
       d="M 308.52766 69.867728 C 304.40164 69.772538 286.72753 73.991051 282.3343 76.234915 C 279.74791 77.555941 278.97164 87.20634 281.3343 88.666556 C 282.06764 89.11978 282.66633 92.505502 282.66633 96.189993 C 282.66633 100.75954 283.16899 102.72101 284.24641 102.36187 C 285.15433 102.05923 285.79036 99.41009 285.74251 96.129447 C 285.69301 92.738133 284.7819 89.543851 283.49641 88.258353 C 281.50074 86.262696 281.56455 85.965623 284.33235 84.428275 L 287.3343 82.760306 L 284.22298 82.713431 C 282.3404 82.684841 281.33015 82.009055 281.66633 81.00054 C 281.97189 80.083875 283.67147 79.332571 285.44368 79.332572 C 288.57935 79.332572 288.6589 79.593482 288.39876 89.00054 L 288.13118 98.666556 L 291.90266 98.666556 C 293.97656 98.666556 296.47465 97.701377 297.45344 96.522025 C 298.96412 94.701762 298.85622 94.103287 296.74446 92.559134 C 294.4328 90.868806 294.41914 90.678025 296.5511 89.859915 C 299.20358 88.842064 300.87402 90.219063 301.55305 93.984915 C 301.81598 95.443159 303.22372 96.852764 304.68196 97.117728 C 306.14022 97.382688 308.61065 98.777184 310.17219 100.21538 C 313.0004 102.82017 313.02175 102.81775 315.50618 99.66265 C 316.87795 97.920584 319.64577 95.416663 321.65657 94.10015 L 325.31282 91.707572 L 321.20735 84.186087 C 316.54177 75.636427 312.67102 71.058815 309.16438 69.945853 C 309.0177 69.899293 308.80273 69.874078 308.52766 69.867728 z M 305.15462 73.522025 C 308.13352 73.532415 311.11963 74.0994 312.74446 75.393118 C 315.16113 77.317314 314.97555 77.402296 309.93977 76.65679 C 306.97355 76.217666 302.94443 76.467122 300.98665 77.211478 C 298.87481 78.014392 297.12178 78.07126 296.6761 77.35015 C 295.2473 75.038296 300.18975 73.50471 305.15462 73.522025 z M 306.03157 78.674368 C 307.93853 78.668068 309.78758 78.923588 311.22493 79.47515 C 314.65455 80.791218 313.63405 82.666556 309.4886 82.666556 C 306.76545 82.666556 305.44153 83.443705 304.94758 85.332572 C 304.12199 88.489734 301.57481 88.846145 300.46712 85.959525 C 299.97313 84.67223 298.75941 84.214815 297.1761 84.717337 C 293.72738 85.811913 294.01627 83.273334 297.62923 80.742728 C 299.51041 79.425084 302.8533 78.684816 306.03157 78.674368 z M 334.79329 96.299368 C 333.81816 96.318162 331.18942 98.298864 328.71126 100.91851 C 324.51998 105.34905 323.9812 106.65767 324.51008 111.14117 C 325.27502 117.6257 321.41539 127.01 316.71712 130.08843 C 314.81911 131.33206 311.33207 132.7433 308.96712 133.2232 C 305.03252 134.02162 304.63134 134.57391 304.25618 139.71538 C 304.03068 142.80577 304.06382 145.33257 304.32844 145.33257 C 304.59303 145.33257 311.5195 138.96573 319.72102 131.18413 C 327.92254 123.40254 335.81316 115.12642 337.25618 112.79156 C 339.62676 108.9559 339.71306 107.97891 338.1468 102.67437 C 337.19339 99.445365 335.76162 96.586332 334.96516 96.320853 C 334.91539 96.30426 334.8583 96.298115 334.79329 96.299368 z M 172.93587 255.52788 C 171.9189 255.49886 170.90557 255.65502 169.93001 256.02593 C 167.97562 256.76898 162.6913 257.47716 158.18782 257.5982 C 151.45352 257.77918 148.2846 258.74159 140.3343 263.02398 C 135.01765 265.88775 130.66633 268.74332 130.66633 269.36968 C 130.66633 271.91842 133.59324 271.94324 140.93391 269.45562 C 145.7504 267.8234 149.1449 267.30663 149.93391 268.08452 C 150.63058 268.77139 152.91542 269.33257 155.01204 269.33257 C 157.21385 269.33257 158.47629 269.89643 158.00032 270.66656 C 157.54709 271.39989 155.26224 272.01852 152.92219 272.04156 C 147.62204 272.09386 142.79868 277.61238 145.35774 280.69585 C 147.95993 283.8313 155.54843 284.60412 159.34016 282.11968 C 163.15138 279.62247 163.69669 280.65179 160.4593 284.22906 C 156.41911 288.69342 150.30084 287.36564 139.73079 279.73296 C 136.36873 277.30518 135.31032 279.41612 137.90462 283.37554 C 140.08968 286.71037 151.24579 294.66656 153.73665 294.66656 C 154.40486 294.66656 154.62255 293.8106 154.22102 292.76421 C 153.13266 289.92798 156.59117 287.49753 158.47883 289.77202 C 159.3031 290.7652 159.58245 291.97309 159.09993 292.45562 C 158.61739 292.93814 158.81458 293.33257 159.53743 293.33257 C 161.70293 293.33257 184.00032 269.84769 184.00032 267.56695 C 184.00032 261.24295 178.42747 255.6846 172.93587 255.52788 z M 282.33235 272.10601 C 280.77799 272.07661 279.00966 272.42074 276.35774 273.12749 C 267.23655 275.55834 265.78805 277.70708 273.66633 277.11968 C 277.14966 276.85996 280.00032 277.03271 280.00032 277.50249 C 280.00032 278.8481 274.55664 279.96115 267.88899 279.98101 C 264.52787 279.99171 261.38324 280.39497 260.90071 280.87749 C 259.01685 282.76135 263.25492 285.33257 268.24251 285.33257 C 271.62469 285.33257 273.1787 285.83887 272.61165 286.7564 C 272.12764 287.53953 269.84083 288.07973 267.53157 287.95562 C 261.30347 287.62091 260.84995 287.81193 262.66633 290.00054 C 263.61953 291.14909 266.52741 292.00054 269.49641 292.00054 C 272.33996 292.00054 274.66633 292.59923 274.66633 293.33257 C 274.66633 294.0659 272.19336 294.66656 269.17024 294.66656 C 264.43556 294.66656 263.90452 294.94379 265.3343 296.66656 C 266.34715 297.88696 269.2688 298.66656 272.8304 298.66656 C 276.04061 298.66656 278.66633 299.26721 278.66633 300.00054 C 278.66633 300.73388 277.16763 301.33257 275.3343 301.33257 C 272.03616 301.33257 271.07986 302.63672 272.98274 304.5396 C 274.35697 305.91382 289.08298 304.08352 294.45149 301.87163 C 296.89951 300.86304 301.39951 298.11411 304.45149 295.76226 C 307.50348 293.41042 310.19785 291.35353 310.43977 291.19195 C 310.6817 291.03036 309.87355 289.36116 308.6429 287.48296 C 307.41226 285.60476 306.34928 282.10379 306.28157 279.70171 L 306.15852 275.33257 L 298.74641 275.27984 C 294.6695 275.25034 289.39363 274.37348 287.02376 273.33062 C 285.22647 272.53971 283.88671 272.13541 282.33235 272.10601 z M 128.1136 278.66656 C 124.85731 278.66656 127.07553 282.66577 133.92024 289.13921 C 140.06663 294.95222 145.3343 297.8152 145.3343 295.34234 C 145.3343 293.99438 129.50548 278.66656 128.1136 278.66656 z M 122.11751 281.51617 C 121.55687 281.56343 121.3343 282.24558 121.3343 283.49077 C 121.3343 286.33244 131.06112 296.00054 133.92024 296.00054 C 135.51296 296.00054 134.33695 293.89552 129.82258 288.66656 C 125.4888 283.64675 123.18782 281.42594 122.11751 281.51617 z M 116.86555 289.16265 C 115.41658 289.13787 114.78856 289.87283 116.17024 291.53765 C 118.10896 293.87366 125.61384 297.49375 126.56087 296.54937 C 126.86932 296.24179 125.71407 294.49113 123.99446 292.6607 C 121.94702 290.4813 118.72852 289.19451 116.86555 289.16265 z "
       transform="translate(-112.0511,-29.152884)" />
    <path
       id="path3278"
       style="fill:#e6e6e6;stroke-width:1.33333"
       d="m 327.55696,93.957572 c -3.80518,0.08756 -14.62086,10.121398 -13.45703,13.154298 0.48782,1.27123 0.20261,2.2207 -0.66602,2.2207 -0.8348,0 -1.8906,-1.0487 -2.3457,-2.33203 -1.8189,-5.12885 -4.75011,-7.001141 -10.96094,-6.99609 -5.74626,0.005 -14.67892,3.79332 -14.87304,6.30859 -0.44589,5.77677 -1.04729,11.57148 -1.8379,17.6875 -0.82654,6.39411 -0.58795,7.71626 1.86915,10.33203 3.64937,3.88503 5.83029,3.72892 14.71484,-1.05273 4.03332,-2.17073 8.60123,-3.94515 10.15234,-3.94532 3.79435,-4.1e-4 9.84766,-4.93005 9.84766,-8.01953 0,-1.37016 0.60065,-2.86122 1.33398,-3.31445 0.73334,-0.45323 1.33203,-2.0821 1.33203,-3.61914 0,-2.71017 -0.0798,-2.72123 -2.66601,-0.38086 -2.28961,2.07207 -2.66602,2.11564 -2.66602,0.31641 0,-1.15255 0.64696,-2.31006 1.43946,-2.57422 0.79249,-0.26417 1.86538,-2.56438 2.38476,-5.11133 0.6514,-3.19446 2.06695,-5.1712 4.56055,-6.37109 3.44052,-1.655565 4.59971,-4.162002 2.77148,-5.990238 -0.22257,-0.222571 -0.53995,-0.321558 -0.93359,-0.3125 z m -30.01172,10.357418 c 1.01692,-0.0306 1.98243,0.2563 3.22461,0.82227 1.88604,0.85934 3.98568,1.22004 4.66406,0.80078 0.67838,-0.41926 1.23242,0.25509 1.23242,1.49805 0,1.9081 -0.92445,2.13296 -5.9414,1.44531 -3.3642,-0.46112 -6.29126,-0.24962 -6.7461,0.48633 -0.94944,1.53625 -5.97851,1.76294 -5.97851,0.26953 0,-0.56657 2.10101,-2.16343 4.66992,-3.54688 2.17533,-1.1715 3.56753,-1.73601 4.875,-1.77539 z"
       transform="translate(-112.0511,-29.152884)" />
    <path
       style="fill:#666666;stroke-width:1.33333"
       d="m 341.33333,90.491228 c 0,-3.173292 -1.44566,-5.621112 -6.02338,-10.198831 -6.71348,-6.71348 -6.95099,-8.468686 -0.6435,-4.755641 C 339.45779,78.357284 344,84.98582 344,89.157379 344,90.72082 344.61883,92 345.37517,92 c 5.13867,0 -0.0748,-13.869276 -6.68018,-17.771175 -2.21558,-1.308773 -4.02832,-2.945666 -4.02832,-3.63754 0,-1.860297 1.66954,-1.538706 5.36998,1.034372 5.05935,3.517982 7.79138,7.284302 8.73439,12.04101 1.0194,5.142061 3.22896,5.781046 3.22896,0.933786 0,-4.749938 -3.13883,-10.305442 -8.25463,-14.610101 -4.25658,-3.581677 -4.60897,-3.641104 -16.34008,-2.755523 -6.59432,0.497804 -12.19454,1.10998 -12.44496,1.360388 -0.2504,0.250408 1.03258,1.943143 2.85107,3.761631 1.81848,1.818489 4.84379,6.340359 6.72289,10.048599 3.08843,6.094709 7.70098,10.927886 10.42906,10.927886 1.78293,0 1.13349,-4.601733 -1.09935,-7.789548 -1.1748,-1.677261 -1.80713,-3.378433 -1.40519,-3.780381 1.03512,-1.035112 6.19687,7.760721 6.20287,10.569929 0.003,1.283334 0.60499,2.333334 1.33832,2.333334 0.73333,0 1.33333,-1.878948 1.33333,-4.175439 z"
       id="path3292"
       transform="translate(-112.0511,-29.152884)" />
    <path
       id="path3294"
       style="fill:#ac9393;stroke-width:1.33333"
       d="M 346.34993 68.00054 L 349.93001 72.6939 C 351.89886 75.275194 353.84791 79.473897 354.26204 82.025931 C 355.12507 87.344114 355.87491 87.678671 358.93391 84.106009 C 362.40633 80.050522 364.05038 76.349364 363.27571 74.330618 C 362.39672 72.04001 353.53741 68.00054 349.3929 68.00054 L 346.34993 68.00054 z M 276.57649 77.332572 C 274.76148 77.332572 260.49824 89.937897 258.86751 92.982962 C 257.23587 96.029719 257.37564 96.647338 260.36555 99.637259 C 263.74822 103.01993 269.48281 104.95711 276.83626 105.19781 L 281.00618 105.33257 L 280.32649 99.00054 C 279.95313 95.517211 279.12711 91.655585 278.49055 90.420462 C 277.85399 89.18534 277.3343 85.735988 277.3343 82.754447 C 277.3343 79.772907 276.99263 77.332572 276.57649 77.332572 z "
       transform="translate(-112.0511,-29.152884)" />
    <path
       style="fill:#6c5353;stroke-width:1.33333"
       d="m 289.33333,70.451788 c 14.96202,-3.97842 23.58736,-5.393081 37,-6.068448 8.25,-0.415412 15,-1.198137 15,-1.739391 0,-0.541253 -0.9186,-1.746469 -2.04133,-2.678257 -1.50588,-1.249769 -5.96512,-1.504476 -17,-0.971024 -13.37263,0.646465 -14.46387,0.536796 -10.292,-1.034328 2.56667,-0.966605 9.01667,-1.803112 14.33333,-1.858903 C 331.65,56.045651 336,55.666903 336,55.259784 c 0,-3.158208 -9.58639,-17.685188 -13.60205,-20.612241 -4.60775,-3.358615 -5.44003,-3.518307 -12.53658,-2.405458 -12.05712,1.890742 -20.26553,6.015758 -23.12278,11.620004 -2.75959,5.412678 -7.36556,22.62205 -6.33143,23.656188 0.37083,0.370822 3.17495,-0.904413 6.23139,-2.833856 3.05642,-1.929442 6.23014,-3.283746 7.05269,-3.009562 0.82256,0.274184 -1.92148,2.453541 -6.09784,4.843016 -4.17637,2.389474 -7.5934,4.964658 -7.5934,5.72263 0,0.79047 0.99497,0.967495 2.33333,0.415144 1.28334,-0.529644 4.43334,-1.521381 7,-2.203861 z"
       id="path3296"
       transform="translate(-112.0511,-29.152884)" />
    <path
       id="path3372"
       style="display:inline;fill:#000000;stroke-width:1.33333"
       d="M 165.43196 272.00054 C 163.52384 272.00054 162.66633 272.85609 162.66633 274.76421 C 162.66633 278.18107 167.07902 277.79454 167.74837 274.3189 C 168.0565 272.7189 167.3401 272.00054 165.43196 272.00054 z M 177.05305 288.76812 C 175.40093 288.71972 174.29263 290.4373 175.1136 292.57671 C 175.55463 293.726 176.55494 294.66656 177.3343 294.66656 C 179.6267 294.66656 180.55441 290.49981 178.53938 289.25445 C 178.02181 288.93457 177.51565 288.78167 177.05305 288.76812 z M 167.51008 305.33257 C 165.03311 305.33257 163.53698 307.50604 164.7093 309.40288 C 165.91535 311.35429 168.57862 310.23319 169.09798 307.55523 C 169.3474 306.26914 168.67828 305.33257 167.51008 305.33257 z M 146.76399 306.66656 C 144.09685 306.66656 143.02898 309.25185 144.91633 311.13921 C 146.34542 312.56831 148.62206 311.34318 149.09798 308.88921 C 149.38865 307.39043 148.62795 306.66656 146.76399 306.66656 z M 183.07844 318.0357 C 181.42991 318.0409 179.70781 319.98376 180.43001 321.86577 C 180.88052 323.03977 181.88698 324.00054 182.66633 324.00054 C 184.61849 324.00054 185.95369 320.08868 184.49837 318.63335 C 184.07944 318.21443 183.5831 318.0341 183.07844 318.0357 z M 157.26594 318.95952 C 155.62306 318.96257 154.29588 321.11084 155.2054 323.48101 C 156.03939 325.6544 156.24383 325.65938 158.32454 323.57867 C 160.06412 321.83909 160.20083 320.99988 158.94368 319.74273 C 158.39707 319.19612 157.81357 318.95851 157.26594 318.95952 z M 174.15266 328.63335 C 172.66992 328.64126 170.83778 330.89515 171.55501 332.76421 C 171.95654 333.81059 172.84002 334.66656 173.5179 334.66656 C 175.22152 334.66656 176.43107 331.11034 175.33235 329.33257 C 175.02694 328.8384 174.60656 328.63093 174.15266 328.63335 z M 141.63313 330.85015 C 140.49486 330.8623 140.00032 331.63815 140.00032 333.33257 C 140.00032 335.34077 140.69717 336.06191 142.3343 335.74663 C 143.61764 335.49949 144.66633 334.41249 144.66633 333.33257 C 144.66633 332.25265 143.61764 331.16761 142.3343 330.92046 C 142.0785 330.8712 141.84392 330.8479 141.63313 330.85015 z M 196.09798 342.66656 C 193.43085 342.66656 192.36296 345.25183 194.25032 347.13921 C 195.67941 348.56831 197.95604 347.34318 198.43196 344.88921 C 198.72264 343.39043 197.96193 342.66656 196.09798 342.66656 z M 158.68587 342.94585 C 157.05114 342.90969 155.59676 345.02747 156.44758 347.24468 C 156.88861 348.39397 157.88698 349.33257 158.66633 349.33257 C 160.8261 349.33257 161.88282 345.34984 160.1761 343.64312 C 159.70282 343.16983 159.18629 342.95692 158.68587 342.94585 z M 179.41243 353.33257 C 177.05697 353.33257 175.55028 355.52676 176.66633 357.33257 C 178.11631 359.67871 181.3343 358.76095 181.3343 356.00054 C 181.3343 354.53387 180.46915 353.33257 179.41243 353.33257 z M 140.09798 356.00054 C 137.43085 356.00054 136.36296 358.58584 138.25032 360.4732 C 139.67941 361.90229 141.95604 360.67716 142.43196 358.2232 C 142.72264 356.72443 141.96193 356.00054 140.09798 356.00054 z M 207.41243 365.33257 C 204.60632 365.33257 203.5263 367.82266 205.36946 370.04351 C 206.24902 371.10332 207.50047 371.64265 208.15071 371.24077 C 210.0828 370.04667 209.49393 365.33257 207.41243 365.33257 z M 160.84407 368.00054 C 158.3671 368.00054 156.87097 370.17399 158.04329 372.07085 C 159.24935 374.02226 161.9126 372.90115 162.43196 370.2232 C 162.68139 368.93711 162.01227 368.00054 160.84407 368.00054 z M 186.11555 377.65484 C 185.25217 377.66336 184.41828 377.9906 183.95344 378.74273 C 183.34251 379.73124 183.15858 381.0507 183.54524 381.67632 C 184.53206 383.27305 188.3331 382.33841 189.00032 380.33452 C 189.51731 378.78181 187.76383 377.63857 186.11555 377.65484 z M 138.06673 379.51812 C 136.40424 379.53937 134.79529 381.45045 135.55501 383.43023 C 135.95654 384.47662 137.05724 385.33257 138.00032 385.33257 C 140.36137 385.33257 141.44484 381.97827 139.66048 380.1939 C 139.17983 379.71325 138.62089 379.51103 138.06673 379.51812 z M 221.25227 392.27984 C 219.65899 392.32963 218.28014 394.40475 219.1136 396.57671 C 219.55463 397.726 220.55494 398.66656 221.3343 398.66656 C 223.49408 398.66656 224.55079 394.68382 222.84407 392.9771 C 222.33923 392.47227 221.78337 392.26324 221.25227 392.27984 z M 162.99251 393.66265 C 161.46365 393.70085 160.14181 396.15237 160.93196 398.21148 C 161.30924 399.19464 162.45533 400.00054 163.47688 400.00054 C 165.68397 400.00054 165.9781 395.22282 163.85188 393.90874 C 163.56658 393.73242 163.27563 393.65558 162.99251 393.66265 z M 193.25227 401.61382 C 191.65899 401.66362 190.28014 403.73874 191.1136 405.9107 C 191.55463 407.06 192.55494 408.00054 193.3343 408.00054 C 195.49408 408.00054 196.55079 404.01781 194.84407 402.31109 C 194.33923 401.80625 193.78337 401.59722 193.25227 401.61382 z M 136.74446 405.33257 C 134.38901 405.33257 132.88427 407.52676 134.00032 409.33257 C 135.45031 411.67871 138.66633 410.76095 138.66633 408.00054 C 138.66633 406.53387 137.80118 405.33257 136.74446 405.33257 z M 236.09798 417.33257 C 233.43085 417.33257 232.36296 419.91787 234.25032 421.80523 C 235.67941 423.23432 237.95604 422.00921 238.43196 419.55523 C 238.72264 418.05646 237.96193 417.33257 236.09798 417.33257 z M 168.10188 419.02788 C 167.49801 419.02224 166.87418 419.25949 166.34016 419.79351 C 165.32596 420.80771 165.40364 421.8114 166.60774 423.26226 C 168.48742 425.52712 170.66633 424.84989 170.66633 422.00054 C 170.66633 420.22638 169.43041 419.0403 168.10188 419.02788 z M 203.41243 425.33257 C 201.05697 425.33257 199.55028 427.52676 200.66633 429.33257 C 202.11631 431.67871 205.3343 430.76095 205.3343 428.00054 C 205.3343 426.53387 204.46915 425.33257 203.41243 425.33257 z M 137.39485 429.57085 C 135.79669 429.54078 134.28948 431.7631 135.1136 433.9107 C 135.55463 435.06 136.47087 436.00054 137.14876 436.00054 C 139.08516 436.00054 140.23819 431.70325 138.71126 430.17632 C 138.29869 429.76375 137.84234 429.57927 137.39485 429.57085 z M 175.41243 442.66656 C 173.05697 442.66656 171.55028 444.86074 172.66633 446.66656 C 174.11631 449.01268 177.3343 448.09299 177.3343 445.33257 C 177.3343 443.86591 176.46915 442.66656 175.41243 442.66656 z M 254.00032 444.00054 C 252.88921 444.00054 252.00032 445.18508 252.00032 446.66656 C 252.00032 448.14803 252.88921 449.33257 254.00032 449.33257 C 255.11143 449.33257 256.00032 448.14803 256.00032 446.66656 C 256.00032 445.18508 255.11143 444.00054 254.00032 444.00054 z M 215.41243 449.33257 C 213.05697 449.33257 211.55028 451.52676 212.66633 453.33257 C 214.11631 455.67871 217.3343 454.76095 217.3343 452.00054 C 217.3343 450.53387 216.46915 449.33257 215.41243 449.33257 z M 138.59993 453.62749 C 136.95704 453.63054 135.62986 455.77686 136.53938 458.14702 C 137.37337 460.32041 137.57781 460.32735 139.65852 458.24663 C 141.39811 456.50705 141.53285 455.66589 140.27571 454.40874 C 139.72909 453.86213 139.14756 453.62648 138.59993 453.62749 z M 182.22298 465.33257 C 179.71514 465.33257 178.73191 466.61683 179.56868 468.79742 C 180.65699 471.63349 184.00032 471.03233 184.00032 468.00054 C 184.00032 466.53387 183.20074 465.33257 182.22298 465.33257 z M 275.3343 465.33257 C 273.32601 465.33257 272.59233 468.14724 274.18587 469.74077 C 275.43018 470.98509 277.3343 469.48197 277.3343 467.25445 C 277.3343 466.19773 276.4343 465.33257 275.3343 465.33257 z M 141.05305 476.76812 C 139.40093 476.71972 138.29263 478.4373 139.1136 480.57671 C 139.55463 481.726 140.55494 482.66656 141.3343 482.66656 C 143.6267 482.66656 144.55441 478.49981 142.53938 477.25445 C 142.02181 476.93457 141.51565 476.78167 141.05305 476.76812 z M 190.59993 485.62749 C 188.95704 485.63054 187.62986 487.77686 188.53938 490.14702 C 189.37337 492.32041 189.57781 492.32735 191.65852 490.24663 C 193.39811 488.50705 193.53285 487.66589 192.27571 486.40874 C 191.72909 485.86213 191.14756 485.62648 190.59993 485.62749 z M 298.07844 486.66656 C 295.27235 486.66656 294.19232 489.15665 296.03548 491.37749 C 296.91503 492.43731 298.16844 492.97469 298.81868 492.57281 C 300.75077 491.37871 300.15995 486.66656 298.07844 486.66656 z M 245.44368 496.00054 C 243.80591 496.00054 242.66633 496.86136 242.66633 498.0982 C 242.66633 499.33985 243.57331 500.01938 244.88899 499.76421 C 248.23401 499.11547 248.69307 496.00054 245.44368 496.00054 z M 145.63313 500.18218 C 144.49486 500.19433 144.00032 500.97214 144.00032 502.66656 C 144.00032 504.67475 144.69717 505.39394 146.3343 505.07867 C 147.61764 504.83152 148.66633 503.74647 148.66633 502.66656 C 148.66633 501.58664 147.61764 500.50159 146.3343 500.25445 C 146.0785 500.20518 145.84392 500.17993 145.63313 500.18218 z M 200.74446 509.33257 C 198.38901 509.33257 196.88427 511.52676 198.00032 513.33257 C 199.45031 515.67871 202.66633 514.76095 202.66633 512.00054 C 202.66633 510.53387 201.80118 509.33257 200.74446 509.33257 z M 326.15266 509.96538 C 324.66992 509.9733 322.83778 512.22915 323.55501 514.0982 C 323.95654 515.14459 324.84002 516.00054 325.5179 516.00054 C 327.22152 516.00054 328.43107 512.44433 327.33235 510.66656 C 327.02694 510.17239 326.60656 509.96296 326.15266 509.96538 z M 152.74446 524.00054 C 150.38901 524.00054 148.88427 526.19473 150.00032 528.00054 C 151.45031 530.34667 154.66633 529.42696 154.66633 526.66656 C 154.66633 525.19989 153.80118 524.00054 152.74446 524.00054 z M 352.00032 526.66656 C 349.70792 526.66656 348.78021 530.83331 350.79524 532.07867 C 351.83625 532.72208 353.16368 532.7024 353.83235 532.03374 C 355.28768 530.5784 353.95253 526.66656 352.00032 526.66656 z M 280.41048 536.70171 C 278.76195 536.70692 277.04179 538.64977 277.76399 540.53179 C 278.21449 541.70579 279.22096 542.66656 280.00032 542.66656 C 281.95248 542.66656 283.28768 538.7547 281.83235 537.29937 C 281.41343 536.88044 280.91513 536.70012 280.41048 536.70171 z M 382.13899 540.12359 C 380.39706 540.17027 378.86249 541.6267 379.49837 543.28374 C 379.93113 544.4115 381.05724 545.33257 382.00032 545.33257 C 384.19541 545.33257 385.64075 541.68028 383.87727 540.59038 C 383.32349 540.24813 382.71963 540.10803 382.13899 540.12359 z M 162.66633 547.33257 C 161.58642 547.33257 160.50136 548.38322 160.25423 549.66656 C 159.93895 551.30368 160.65814 552.00054 162.66633 552.00054 C 164.67453 552.00054 165.39568 551.30368 165.0804 549.66656 C 164.83325 548.38322 163.74625 547.33257 162.66633 547.33257 z M 229.29329 549.65288 C 227.71257 549.69815 226.23152 551.54992 227.26204 553.21734 C 227.75476 554.01457 228.68753 554.66656 229.3343 554.66656 C 231.39376 554.66656 232.35528 551.8223 230.81673 550.28374 C 230.35689 549.82391 229.82019 549.63779 229.29329 549.65288 z "
       transform="translate(-112.0511,-29.152884)" />
  </g>
</svg>
